{"title":"Red Sun, Soleil Rouge 1971 DVD9rip English Klam","uid":6060935,"size":1473347580,"categoryP":"video","categoryS":"movies","magnet":"?xt=urn:btih:e424eff7eb44b0b2e5565efebe8a6a5620a96a33&amp;dn=Red+Sun%2C+Soleil+Rouge+1971+DVD9rip+English+Klam&amp;tr=udp%3A%2F%2Ftracker.openbittorrent.com%3A80&amp;tr=udp%3A%2F%2Fopen.demonii.com%3A1337&amp;tr=udp%3A%2F%2Ftracker.coppersurfer.tk%3A6969&amp;tr=udp%3A%2F%2Fexodus.desync.com%3A6969","seeders":1,"leechers":0,"uploader":"Klambake","files":-1,"time":1293119496,"description":"With: Charles Bronson, ToshirÃƒÂ´ Mifune and Alain Delon\n\nThe Japanese ambassador is traveling through the Wild West by train, when gangsters hold up the train, to rob a gold shipment. They also carry an ancient Japanese sword the ambassador was carrying as a present for the US president. The ambassador's bodyguard (Toshiro Mifune) will go after them, with the aid of one of the gang's leaders betrayed by his pals...\n\nGeneral:\n\nComplete name                    : Red\\Sun.avi\nFormat                           : AVI\nFormat/Info                      : Audio Video Interleave\nFile size                        : 1.37 GiB\nDuration                         : 1h 49mn\nOverall bit rate                 : 1 789 Kbps\n\nVideo:\n\nFormat                           : MPEG-4 Visual\nFormat profile                   : Simple@L3\nFormat settings, BVOP            : No\nFormat settings, QPel            : No\nFormat settings, GMC             : No warppoints\nFormat settings, Matrix          : Default (H.263)\nCodec ID                         : XVID\nCodec ID/Hint                    : XviD\nDuration                         : 1h 49mn\nBit rate                         : 1 586 Kbps\nWidth                            : 720 pixels\nHeight                           : 576 pixels\nDisplay aspect ratio             : 5:4\nFrame rate                       : 25.000 fps\nStandard                         : PAL\nColor space                      : YUV\nChroma subsampling               : 4:2:0\nBit depth                        : 8 bits\nScan type                        : Progressive\nBits/(Pixel*Frame)               : 0.153\nStream size                      : 1.22 GiB (89%)\nWriting library                  : XviD 1.1.2 (UTC 2006-11-01)\n\nAudio:\n\nFormat                           : AC-3\nFormat/Info                      : Audio Coding 3\nMode extension                   : CM (complete main)\nCodec ID                         : 2000\nDuration                         : 1h 49mn\nBit rate mode                    : Constant\nBit rate                         : 192 Kbps\nChannel(s)                       : 2 channels\nChannel positions                : Front: L R\nSampling rate                    : 48.0 KHz\nBit depth                        : 16 bits\nStream size                      : 151 MiB (11%)\nAlignment                        : Aligned on interleaves\nInterleave, duration             : 32 ms (0.80 video frame)","torrent":{"xt":"urn:btih:e424eff7eb44b0b2e5565efebe8a6a5620a96a33","amp;dn":"Red+Sun%2C+Soleil+Rouge+1971+DVD9rip+English+Klam","amp;tr":["udp%3A%2F%2Ftracker.openbittorrent.com%3A80","udp%3A%2F%2Fopen.demonii.com%3A1337","udp%3A%2F%2Ftracker.coppersurfer.tk%3A6969","udp%3A%2F%2Fexodus.desync.com%3A6969"],"infoHash":"e424eff7eb44b0b2e5565efebe8a6a5620a96a33","infoHashBuffer":{"type":"Buffer","data":[228,36,239,247,235,68,176,178,229,86,94,254,190,138,106,86,32,169,106,51]},"announce":[],"urlList":[]}}